<svg version="1.1" id="Layer_1" xmlns="http://www.w3.org/2000/svg" xmlns:xlink="http://www.w3.org/1999/xlink" x="0px" y="0px"
	 width="100%" viewBox="0 0 576 544" enable-background="new 0 0 576 544" xml:space="preserve">
<path fill="#000000" opacity="1.000000" stroke="none" 
	d="
M1.000000,136.467941 
	C9.869768,138.111572 16.015444,145.753784 25.098368,147.647308 
	C30.467621,148.766617 31.309475,148.634445 30.697355,142.952698 
	C29.823839,134.844635 28.786283,126.745125 27.485752,118.695770 
	C26.772724,114.282616 28.015665,112.087402 32.462429,110.630806 
	C42.331177,107.398178 52.685005,109.387711 62.607822,107.205750 
	C63.933933,106.914146 65.209244,107.669258 66.210945,108.633125 
	C66.930229,109.325249 67.902786,109.944183 68.251526,110.803162 
	C74.577187,126.384033 87.579247,124.591782 100.426567,123.267616 
	C110.260796,122.254013 120.055557,122.704971 129.805649,124.226120 
	C131.416336,124.477409 133.087677,124.785110 134.695694,126.454475 
	C132.503952,131.905746 127.673317,134.047058 122.695984,135.740372 
	C116.280884,137.922775 113.243904,141.314453 113.110374,147.966949 
	C113.008896,153.022675 112.486855,157.996887 116.108513,162.686356 
	C118.532936,165.825607 117.223068,170.424820 116.765419,174.390778 
	C116.537025,176.369934 116.287956,178.376968 115.740227,180.282867 
	C114.520477,184.527100 116.754814,186.365051 120.312004,187.665955 
	C152.973618,199.610794 185.764572,211.220810 218.229279,223.680283 
	C255.823318,238.108337 293.530518,252.224258 331.427338,265.818634 
	C350.076782,272.508545 368.587769,279.554504 387.193420,286.351898 
	C388.418030,286.799255 389.646637,287.427795 391.331970,286.942230 
	C392.643433,283.818207 389.562469,281.688873 388.984680,278.975525 
	C388.172577,275.161621 387.201355,272.027710 388.486694,267.807831 
	C389.969696,262.938995 389.107880,257.499847 390.338257,252.213654 
	C392.233093,244.072891 395.326416,236.214691 396.255157,227.830597 
	C396.539764,225.261353 398.188416,222.545059 395.424377,220.565674 
	C392.797119,218.684265 386.845276,219.151688 384.322174,221.074280 
	C383.006683,220.899948 383.559326,219.225876 382.664215,218.876846 
	C380.693573,218.108429 378.720520,216.870682 376.497589,217.763184 
	C375.247406,218.265152 375.104004,219.529449 375.182831,220.749176 
	C375.359467,223.481705 377.583008,224.157669 379.572144,224.939575 
	C385.957611,227.449661 386.467133,228.172928 384.593872,234.654922 
	C382.814972,240.810379 380.718628,246.875122 380.158356,253.386719 
	C378.627289,251.754471 378.998993,249.996475 379.408295,248.324661 
	C380.214020,245.033386 380.150818,241.690475 379.981995,238.377090 
	C379.729034,233.412842 376.539154,230.060867 371.617432,229.275299 
	C370.306274,229.066025 368.957764,229.103348 367.634186,228.957245 
	C359.966309,228.110901 358.722198,226.546005 361.802155,219.666763 
	C364.464111,213.721283 361.455048,207.646118 356.896027,201.756180 
	C360.108124,200.850967 360.986298,198.483032 361.163452,195.445999 
	C361.492279,189.809052 363.470917,184.339905 362.975189,178.600815 
	C362.834564,176.972504 363.076843,175.329590 361.663055,173.972321 
	C358.328827,170.771362 358.336334,167.680649 362.332611,165.546265 
	C364.835632,164.209412 365.638000,162.619003 365.867249,160.219299 
	C366.519379,153.392410 369.832550,147.336273 371.595123,140.820572 
	C372.485657,137.528351 376.152008,135.594025 377.078278,131.755386 
	C377.881500,128.426498 377.107635,126.982849 374.148438,126.271629 
	C367.071930,124.570816 360.232666,122.336433 353.934662,118.546013 
	C350.574585,116.523781 347.745544,115.378334 345.460541,120.775711 
	C343.942078,124.362534 345.704376,125.963715 347.527618,126.781715 
	C355.590179,130.398941 355.231659,136.401840 352.989288,143.250763 
	C352.469940,144.837051 352.156982,146.457138 353.772339,147.818848 
	C356.425354,150.055298 356.143127,153.156937 355.925354,156.162643 
	C355.729950,158.859650 356.390381,161.394226 357.655151,164.456711 
	C353.929230,164.613068 352.837067,162.337357 352.372650,160.022232 
	C351.401062,155.179092 349.049133,150.734283 347.359070,146.260498 
	C346.251556,143.328812 344.353271,141.192627 345.550995,137.801437 
	C345.957123,136.651413 344.951202,135.618011 343.937622,134.929001 
	C338.678314,131.353897 335.524811,125.607178 329.273682,122.610062 
	C325.919159,121.001709 322.578735,116.577499 319.747803,112.952461 
	C319.035950,112.040939 318.444427,111.021072 317.652771,110.188766 
	C314.038818,106.389389 313.138123,106.406288 310.349762,110.986763 
	C307.456512,115.739532 304.856903,120.671051 302.009247,125.737282 
	C307.802338,129.128860 313.989014,128.925644 319.621460,130.636337 
	C327.078644,132.901260 330.206482,136.815903 328.878510,144.717987 
	C328.410614,147.502304 327.787872,150.271866 327.043518,152.995621 
	C326.153473,156.252441 325.756012,159.177063 329.385010,161.183624 
	C330.568207,161.837830 331.274780,163.204178 330.433136,164.634842 
	C329.581665,166.082214 328.105865,166.565796 326.537476,166.268631 
	C321.636658,165.340057 316.698395,164.519424 311.889587,163.228821 
	C309.040894,162.464279 306.382385,161.019928 303.157593,161.543732 
	C306.452057,158.430481 308.619629,153.889587 314.647614,155.821976 
	C317.778381,156.825592 319.588043,153.884705 318.759796,151.283615 
	C317.542328,147.460175 325.493988,142.255325 317.126770,139.834061 
	C312.368317,138.457062 307.298279,138.068573 302.643005,136.447021 
	C297.532593,134.666916 296.038574,137.615829 294.941040,141.291443 
	C293.308167,146.759750 291.834381,152.283722 290.532928,157.840240 
	C289.489655,162.294342 289.428497,166.882721 287.606903,171.280670 
	C286.038971,175.066238 289.050201,176.821777 292.389862,177.928680 
	C295.681366,179.019638 297.920349,178.045380 299.348053,175.034119 
	C299.902649,173.864349 300.214142,172.579285 300.837616,170.759262 
	C305.654083,177.102768 298.774048,181.745880 299.900238,187.757080 
	C306.259308,187.668991 313.033661,189.093475 319.898499,189.743393 
	C323.333069,190.068573 324.660461,187.425247 324.682312,184.600800 
	C324.703674,181.832504 325.900848,180.178543 328.091980,179.021729 
	C330.503418,177.748611 332.345947,175.966141 334.064056,173.845230 
	C336.380585,170.985626 339.689056,171.657654 341.090607,175.006699 
	C342.883148,179.289825 340.280273,186.500412 335.916534,188.332352 
	C332.785828,189.646667 332.673798,193.038239 330.439117,195.109451 
	C327.368866,197.955109 322.864899,199.427460 321.405914,204.059708 
	C317.882111,198.473465 309.295135,194.853378 302.363037,196.649887 
	C295.395813,198.455521 288.224213,198.357819 281.203522,199.809509 
	C274.807037,201.132141 268.414917,198.318634 262.097870,196.873001 
	C256.101410,195.500732 250.126831,194.030899 244.119446,192.709381 
	C240.826965,191.985107 238.661102,193.184830 237.853180,196.674271 
	C237.306839,199.033905 236.272171,201.527206 233.224579,200.602829 
	C230.311096,199.719131 230.719849,197.124527 231.213196,194.719955 
	C231.747147,192.117249 232.106888,189.535416 233.724991,187.228668 
	C235.502106,184.695206 237.558350,183.961014 240.576218,184.578201 
	C250.664719,186.641449 260.806427,188.444183 270.897400,190.495972 
	C274.522827,191.233139 276.540466,190.506073 277.090332,186.409470 
	C278.019440,179.487274 279.121857,172.567703 280.616302,165.748901 
	C281.711884,160.749832 278.246399,156.665161 278.565704,151.849030 
	C278.676636,150.176437 276.431152,150.131165 275.037323,149.643188 
	C272.606171,148.792007 269.906158,148.261810 268.458221,145.146606 
	C271.145508,144.119720 273.265045,144.978989 275.159485,146.204102 
	C277.205383,147.527130 279.415649,148.025528 281.745789,148.313385 
	C283.253052,148.499588 284.901733,148.056427 284.669861,146.489029 
	C283.692627,139.883392 291.223419,135.864563 289.740753,129.188232 
	C289.687958,128.950394 289.964020,128.524109 290.205444,128.354172 
	C292.585236,126.679245 295.629272,124.324905 294.222626,121.666870 
	C292.043579,117.549278 289.899261,112.927139 285.242371,110.650391 
	C280.267639,108.218254 274.956696,106.733414 269.560883,105.720093 
	C264.873932,104.839874 260.790527,102.621101 256.802979,100.350296 
	C254.390121,98.976227 252.591019,96.514114 254.256241,93.144127 
	C254.887482,91.866646 255.390579,90.309875 253.843781,88.810143 
	C253.335587,88.962692 252.609543,88.987411 252.145996,89.348831 
	C245.389755,94.616669 237.331360,96.468262 229.207275,98.121292 
	C226.995682,98.571289 225.626236,99.697128 225.141769,101.930885 
	C224.840393,103.320473 224.896912,104.926056 222.704330,106.178169 
	C220.187439,96.279938 217.097824,86.869576 217.417389,76.805504 
	C217.501495,74.156815 219.731628,73.006172 221.821426,71.814987 
	C229.490768,67.443497 237.113052,62.989094 244.731216,58.528603 
	C245.997040,57.787460 247.456268,57.192459 248.002472,55.586548 
	C247.907272,53.623333 246.389465,52.686520 244.994354,51.900177 
	C231.078873,44.056805 218.282166,34.311440 203.709488,27.592001 
	C200.072372,25.914934 196.280518,24.801422 192.327225,23.991285 
	C188.866928,23.282171 187.469940,24.181755 186.904251,27.655293 
	C186.006256,33.169483 187.520523,38.591022 187.050278,44.087383 
	C186.508072,50.424839 186.201523,50.828163 179.794479,49.984058 
	C169.728149,48.657848 159.682419,47.112366 149.582611,46.122559 
	C141.096344,45.290878 133.966293,41.483631 127.259964,36.807072 
	C119.804787,31.608305 111.930244,27.863758 103.004410,25.732143 
	C91.241264,22.922943 81.234467,15.822571 70.337097,10.861480 
	C66.095024,8.930248 61.908970,6.861940 57.786091,4.687873 
	C55.049492,3.244816 52.941769,3.352296 50.740719,5.810347 
	C48.050106,8.815130 38.858356,10.613338 35.686825,8.691342 
	C32.187428,6.570655 35.442802,4.052951 35.883278,1.354180 
	C44.354233,1.000000 52.708466,1.000000 61.531349,1.000000 
	C65.331062,4.746423 70.091904,6.044254 74.366600,8.144383 
	C82.127831,11.957422 89.962509,15.620705 97.757042,19.366251 
	C109.740410,25.124681 122.016083,23.904892 134.374252,20.947504 
	C152.851196,16.525860 171.264557,15.349667 190.201492,19.042109 
	C203.582169,21.651157 214.821579,28.007236 225.890900,35.031307 
	C238.282471,42.894424 251.544571,49.234444 263.895508,57.086525 
	C273.374603,63.112850 283.854675,63.656952 294.358337,64.860970 
	C299.975800,65.504890 305.613373,66.062614 311.184631,66.999756 
	C319.665558,68.426338 325.252228,74.177620 329.915497,80.759377 
	C335.582397,88.757683 340.462677,97.330788 346.371094,105.134438 
	C350.360962,110.404106 355.716705,114.680054 361.875885,117.352646 
	C370.386871,121.045731 379.522339,123.334930 388.364136,125.705482 
	C396.591156,127.911194 404.992035,130.016479 413.283508,132.191162 
	C435.576355,138.038071 457.138031,146.691696 479.856995,150.790741 
	C491.919037,152.966995 501.000275,158.843185 509.042999,167.420486 
	C512.563171,171.174637 516.040894,175.016296 520.328430,177.998749 
	C523.552246,180.241318 523.652832,182.629669 520.417480,185.145767 
	C504.399689,197.602997 493.490753,214.537506 481.133850,230.193558 
	C477.597778,234.673660 474.983826,235.213715 470.288025,231.832657 
	C469.285675,231.110916 468.376740,229.707520 466.981140,231.303467 
	C474.695343,237.527023 475.487885,239.981445 470.419800,249.216354 
	C456.024445,275.447235 444.940796,303.062500 435.384247,331.334503 
	C433.958832,335.551514 432.441650,337.494080 427.650055,334.968536 
	C423.282990,332.666779 418.364380,331.411469 412.898468,329.404724 
	C415.497223,333.546387 420.487000,332.985382 423.228729,336.985382 
	C417.291321,335.550232 412.640594,333.089691 408.324219,330.161743 
	C403.207123,326.690552 397.877808,323.672760 392.319427,321.009186 
	C391.601471,320.665161 390.550781,320.177429 390.416077,319.583466 
	C389.009766,313.382935 383.001007,312.417969 378.903564,309.310516 
	C376.905212,307.794952 375.301697,308.125305 374.104401,310.529907 
	C372.631500,313.487976 370.506897,316.148926 370.958282,319.799805 
	C371.219208,321.910004 370.194702,323.840942 368.815613,325.248413 
	C361.428711,332.787354 358.291687,342.463013 354.987610,352.077789 
	C354.668793,353.005493 354.211548,353.893921 353.731964,354.752136 
	C353.615601,354.960388 353.154938,354.976196 352.441498,355.222198 
	C352.643799,351.923401 355.051025,348.971436 353.503326,345.547791 
	C351.544830,346.282074 352.562042,348.697266 351.057556,349.757172 
	C349.375824,348.645020 350.055267,347.071289 350.312683,345.775604 
	C352.840179,333.054077 354.984009,320.251221 358.309937,307.696777 
	C359.943268,301.531433 358.975494,299.661713 352.662231,298.195953 
	C347.901184,297.090637 343.194458,294.780121 338.059509,297.051636 
	C335.976196,297.973175 336.236176,294.342987 333.184906,294.816589 
	C331.871124,295.285858 331.011505,297.721924 329.151764,299.081848 
	C326.350769,301.130035 321.501770,301.166412 319.825562,298.578766 
	C317.834198,295.504639 316.980499,292.809937 320.437958,289.379608 
	C324.823456,285.028473 329.061035,284.205261 334.801514,285.794464 
	C346.813690,289.119965 358.995728,291.826752 371.056152,294.985657 
	C375.133606,296.053680 378.242523,299.104401 381.804352,301.231232 
	C383.335724,302.145630 384.606201,303.657562 386.824280,303.323090 
	C389.534515,300.185699 388.791046,296.136292 389.242401,292.470673 
	C389.478485,290.553528 387.137909,290.132629 385.631836,289.574615 
	C357.530334,279.162720 329.429169,268.749573 301.300446,258.411560 
	C279.272461,250.315674 257.193695,242.357681 235.176132,234.233795 
	C232.610306,233.287079 230.402542,232.796265 228.315613,235.340057 
	C223.354416,229.227112 216.084305,227.750259 209.518494,225.310043 
	C168.637909,210.116455 127.645226,195.224472 86.684471,180.246780 
	C81.837044,178.474274 76.989929,176.689987 72.083305,175.093628 
	C68.075439,173.789658 66.218750,175.399063 67.375366,179.413788 
	C68.190666,182.243744 69.352829,185.258667 71.229492,187.444687 
	C76.938972,194.095352 78.237755,202.436523 80.689278,210.329666 
	C81.553894,213.113495 80.788132,216.198257 79.412117,218.578369 
	C76.015678,224.453186 77.595657,230.163803 79.148994,235.973022 
	C79.578979,237.581100 80.310555,239.127487 80.581177,240.755798 
	C81.484947,246.193573 79.221458,248.896698 73.702820,249.108276 
	C71.372108,249.197632 69.037224,249.211411 66.704369,249.205765 
	C56.703728,249.181534 57.452988,250.640198 55.251373,239.181793 
	C53.156113,228.276932 52.154522,217.163910 50.600571,206.152496 
	C49.022221,194.968185 47.315567,183.801865 45.765945,172.613708 
	C45.480190,170.550598 44.593624,169.150360 42.700676,168.476074 
	C29.080519,163.624374 15.713924,158.051651 1.394427,154.033112 
	C1.000000,148.311966 1.000000,142.623917 1.000000,136.467941 
M412.467804,208.589478 
	C410.031067,207.371582 407.594330,206.153671 405.040680,204.877335 
	C403.485687,207.170670 403.211761,209.377380 403.596252,212.538361 
	C405.321381,205.809616 409.559570,208.691757 413.523834,209.417084 
	C416.643799,210.645981 418.379395,213.792953 421.474487,215.514679 
	C421.344147,213.582062 418.921875,210.543060 422.822662,211.269043 
	C426.998413,212.046188 431.097168,213.749771 434.834045,216.003906 
	C435.585724,216.457336 436.165894,217.235764 435.874390,218.087387 
	C433.987366,223.600357 438.143097,222.875870 442.241089,224.105011 
	C439.900818,220.782059 441.389832,219.272675 443.619171,218.202682 
	C441.030060,216.049438 437.439880,216.433472 435.632660,212.983871 
	C440.459442,212.851639 443.983368,215.301498 447.706360,216.787506 
	C455.238129,219.793823 463.455353,221.330353 470.064819,226.376068 
	C474.909576,230.074600 475.855316,229.975281 479.571533,225.443390 
	C490.010559,212.713043 499.623718,199.313400 510.694183,187.095078 
	C514.423706,182.978867 514.180176,178.880585 510.211975,174.937454 
	C507.969574,172.709259 506.029968,170.142731 503.626892,168.116455 
	C497.628296,163.058441 492.664703,156.517899 483.798187,155.712769 
	C471.506256,154.596634 459.709686,151.126480 448.042206,147.188141 
	C441.896881,145.113770 435.683685,143.201752 429.414490,141.543961 
	C423.010712,139.850540 421.557037,141.390915 421.059479,147.963043 
	C420.802582,151.356491 422.879913,154.298721 422.098389,157.637665 
	C419.519226,168.656586 416.021576,179.384689 411.917480,189.920364 
	C411.478180,191.048126 410.850250,192.621307 411.754272,193.192963 
	C415.716553,195.698410 416.120331,202.013550 421.996948,202.504852 
	C423.361725,202.618958 425.219482,203.098785 425.964722,205.000671 
	C420.374420,205.672562 415.303864,202.402100 408.910400,203.198929 
	C416.435852,209.309998 426.257751,205.940872 432.403656,212.514725 
	C426.070068,210.489059 419.597382,209.393173 412.467804,208.589478 
M432.031738,226.650696 
	C431.797607,224.490784 429.837799,224.415878 428.431824,223.676010 
	C423.812378,221.245102 419.024109,219.589813 414.792450,215.887970 
	C410.208344,211.877823 407.876282,212.330994 406.218872,218.909546 
	C404.476593,225.824936 402.481293,232.737778 401.528076,239.777847 
	C399.625061,253.832703 393.917053,267.733398 399.254486,282.228668 
	C399.853668,283.855957 399.709045,285.880768 399.471436,287.662811 
	C399.136993,290.170929 400.238037,291.260223 402.423187,292.062561 
	C413.347992,296.073853 424.228516,300.205505 435.139679,304.254303 
	C438.448090,305.481934 440.765991,304.902283 442.097321,301.079895 
	C443.897980,295.909912 446.272705,290.942383 448.316895,285.854156 
	C451.456787,278.038513 454.524902,270.194061 457.899872,261.663300 
	C451.216095,262.525543 450.254517,257.836884 449.456604,253.319046 
	C447.255035,254.592575 448.844574,256.560577 446.831604,257.348846 
	C443.846100,255.520813 440.819885,255.431046 437.735565,258.238098 
	C435.998077,259.819366 433.920990,258.749298 432.566254,256.966888 
	C431.324951,255.333755 431.620880,253.997101 432.740601,252.078995 
	C435.067200,248.093323 438.345612,247.509125 442.424591,247.699173 
	C452.469177,248.167099 453.961761,247.170593 458.034515,238.435211 
	C458.685181,237.039688 458.819427,235.853470 457.434296,234.956207 
	C455.850189,233.930023 454.598846,234.475784 453.691071,236.019028 
	C452.680115,237.737732 451.661346,239.452118 450.673248,241.183945 
	C449.051361,244.026428 446.887573,243.813004 444.309235,242.547867 
	C441.299164,241.070877 442.233612,238.986969 442.908997,236.639053 
	C443.563080,234.365204 446.213318,233.285965 446.270813,230.763657 
	C442.122284,228.190720 441.358459,228.417206 439.721863,232.453384 
	C438.052307,236.570923 437.737335,241.831894 431.558594,242.449921 
	C427.782288,237.226959 430.285858,232.275833 432.031738,226.650696 
M371.346649,172.876984 
	C369.994781,182.412384 370.266327,192.115784 368.370575,201.595413 
	C367.807220,204.412476 368.711731,206.478104 371.448181,207.657623 
	C379.874084,211.289551 388.804474,211.902603 397.804016,212.089798 
	C399.281036,212.120529 399.718140,211.048553 399.945160,209.798782 
	C401.098328,203.450516 403.616394,197.469421 403.929688,190.810913 
	C404.079620,187.624512 404.875549,183.977631 406.697144,180.573364 
	C410.675262,173.138901 413.812317,165.203049 412.902130,156.286011 
	C412.671875,154.030014 411.452454,152.143753 411.753296,149.576996 
	C412.261749,145.239136 415.195343,140.531647 408.330597,136.963638 
	C402.953552,134.168854 397.193848,133.847305 391.918243,131.536514 
	C391.588745,131.392181 390.887878,131.689743 390.565063,131.997223 
	C386.177124,136.176804 381.282776,139.808868 378.988770,145.891342 
	C375.770386,154.424820 373.825653,163.286316 371.346649,172.876984 
M316.499207,74.705399 
	C308.849609,70.174736 300.691650,69.818352 292.023254,71.719078 
	C290.576691,70.271164 289.352600,67.794678 286.592804,68.416153 
	C282.410065,69.358063 278.362488,68.416817 274.283630,67.880508 
	C272.628418,67.662872 270.959290,67.635132 270.874268,69.631111 
	C270.695679,73.823387 267.961975,76.897797 266.514709,80.519287 
	C261.821472,92.262962 264.802704,97.696678 277.270721,99.682732 
	C277.434845,99.708870 277.599060,99.737312 277.764374,99.752899 
	C285.446625,100.477455 292.152100,103.027557 296.707520,109.724915 
	C297.723450,111.218483 299.380219,112.537598 300.677338,110.507385 
	C302.731689,107.291977 305.718140,104.764587 307.206268,101.139244 
	C309.393005,95.811897 314.205719,91.562927 313.512177,85.020294 
	C313.364716,83.629333 315.591095,83.491570 316.366577,82.528679 
	C318.203918,80.247337 321.432587,77.909370 316.499207,74.705399 
M401.175110,315.295868 
	C403.304382,317.149719 405.420868,319.018494 407.565369,320.854553 
	C413.412140,325.860565 419.869415,329.863037 427.012817,332.767059 
	C429.097839,333.614655 431.123352,334.115356 431.641541,331.222931 
	C432.702057,325.303741 435.075317,319.811066 436.951233,314.167786 
	C438.233429,310.310760 437.148712,308.246338 433.462128,306.965271 
	C425.778564,304.295319 418.141113,301.492706 410.484589,298.744965 
	C406.491943,297.312073 402.498993,295.880005 398.233704,294.349792 
	C394.513916,302.118652 399.042572,308.309479 401.175110,315.295868 
M322.365692,90.804512 
	C321.263916,93.215652 320.191681,95.640907 319.049042,98.032524 
	C318.391327,99.409187 318.328949,100.940552 319.688934,101.552734 
	C325.739288,104.276245 328.844849,110.995644 335.436737,112.932434 
	C339.546265,108.891579 340.047638,105.781395 337.326874,101.112938 
	C336.409760,99.539375 335.795532,97.686913 334.572632,96.413582 
	C331.218628,92.921303 329.841309,88.000107 326.573212,84.575218 
	C323.789703,85.908165 323.365967,88.114792 322.365692,90.804512 
M280.319885,188.739929 
	C279.679382,194.947647 278.975281,195.758362 273.983734,194.648026 
	C263.771393,192.376328 253.577576,190.003616 243.437775,187.429611 
	C236.813568,185.748062 232.745438,189.749191 234.086380,197.005493 
	C235.174026,197.080231 235.392624,196.237549 235.702576,195.473160 
	C238.479813,188.624084 238.775360,188.572189 245.855301,190.227341 
	C254.592361,192.269897 263.408081,193.979507 272.131317,196.076187 
	C276.621063,197.155350 280.986542,197.019608 285.470917,196.265320 
	C296.702057,194.376221 307.922546,191.298370 319.309692,195.530823 
	C320.128815,195.835281 321.159393,195.570709 323.350403,195.570709 
	C321.319489,194.756714 320.436981,194.358475 319.524292,194.049500 
	C318.585602,193.731750 317.600189,193.550552 316.664795,193.224747 
	C306.856659,189.808548 297.299683,192.601089 287.670227,194.283081 
	C282.076752,195.260101 280.900940,194.107208 282.020721,188.557953 
	C283.892609,179.281342 285.002502,169.866516 287.410675,160.676849 
	C288.216034,157.603531 289.187531,154.258484 288.686554,150.959229 
	C288.261841,150.903397 287.837158,150.847580 287.412476,150.791763 
	C285.086761,163.155563 282.761047,175.519379 280.319885,188.739929 
M369.287689,161.352249 
	C367.464233,171.417511 364.841858,181.412537 366.421631,191.777466 
	C366.997070,180.754379 368.809479,169.867737 369.950378,158.870544 
	C369.751556,159.475525 369.552765,160.080505 369.287689,161.352249 
M385.980408,214.731522 
	C380.854614,213.485031 375.728851,212.238541 370.603058,210.992050 
	C377.452301,214.792236 384.796051,216.165863 392.555908,215.394974 
	C390.635559,215.215225 388.715240,215.035477 385.980408,214.731522 
M322.036652,162.844330 
	C323.669189,163.021347 325.311890,164.093536 327.677185,162.681168 
	C324.065613,161.308609 322.475464,159.010483 322.130127,155.538147 
	C322.873383,158.149414 317.988708,159.788666 322.036652,162.844330 
M261.254669,82.900917 
	C260.556274,86.212708 258.616974,89.318184 259.647308,93.694992 
	C261.073883,88.216194 262.310181,83.468094 263.546509,78.719994 
	C263.252289,78.641556 262.958069,78.563118 262.663849,78.484680 
	C262.262207,79.721405 261.860535,80.958122 261.254669,82.900917 
M286.662323,188.731857 
	C287.399170,189.927490 288.796173,189.795929 288.836823,188.784897 
	C288.933167,186.387558 290.305084,183.797562 288.541443,181.160019 
	C286.571564,183.406799 287.264069,185.927109 286.662323,188.731857 
z"/>
<path fill="#000000" opacity="1.000000" stroke="none" 
	d="
M1.000000,235.460632 
	C11.431828,243.068375 23.137177,249.149597 34.238220,256.167053 
	C60.563389,272.808441 87.095039,289.123566 113.565887,305.533997 
	C135.068558,318.864380 156.652649,332.064056 178.108154,345.469727 
	C192.366104,354.378265 206.461548,363.546906 220.627243,372.603027 
	C221.188339,372.961731 221.722824,373.362000 222.271317,373.740540 
	C224.689255,375.409241 225.566910,377.472839 223.788147,380.110443 
	C222.125656,382.575653 220.005798,382.469879 217.718262,381.038818 
	C210.798813,376.710114 203.520767,372.851257 197.057281,367.924133 
	C189.639648,362.269623 181.347763,360.252991 172.492554,360.237366 
	C140.828171,360.181549 109.316597,356.893646 77.691452,355.946472 
	C68.733681,355.678131 59.587749,356.266724 50.799946,354.531281 
	C41.312290,352.657654 33.705521,358.929993 36.812790,370.397644 
	C37.695084,373.653839 38.264950,376.861908 38.268867,380.218384 
	C38.276600,386.841797 35.842564,389.814819 29.102228,390.021423 
	C23.359098,390.197479 18.096647,391.938080 11.810778,393.663849 
	C16.767546,395.510040 20.776493,393.599579 24.737745,393.392609 
	C29.336372,393.152313 33.920300,391.949097 38.429558,390.835602 
	C45.664852,389.048981 46.451805,389.340393 49.343731,396.200714 
	C49.724342,397.103668 50.229103,397.954254 50.884022,399.235260 
	C56.905514,395.579132 61.475750,390.521912 66.690674,386.285858 
	C67.724243,385.446320 68.662483,384.485352 69.722664,383.683472 
	C71.938271,382.007690 73.787682,382.889893 75.397270,384.685913 
	C77.052620,386.532928 76.789268,388.267975 74.997726,389.899536 
	C69.701996,394.722412 64.335190,399.472412 59.175919,404.437653 
	C56.807129,406.717377 54.906494,404.521393 52.206730,404.106628 
	C53.078796,409.156708 54.845371,413.571075 56.698120,417.929291 
	C57.593670,420.035919 59.631489,419.961304 61.467552,419.466461 
	C68.375557,417.604584 75.260437,415.656586 82.149117,413.723511 
	C86.054604,412.627563 86.180367,409.882721 85.279648,406.615051 
	C82.052292,394.906738 78.928970,383.169403 75.636772,371.479492 
	C73.980835,365.599609 75.011673,364.493805 80.984840,364.616974 
	C96.140411,364.929535 111.218979,366.502655 126.366920,367.075745 
	C141.138779,367.634583 155.908112,368.600830 170.701294,368.884918 
	C173.670898,368.941986 176.342331,370.328064 178.578156,371.780670 
	C191.134979,379.939087 203.492569,388.405884 215.861557,396.850342 
	C218.579285,398.705780 220.962677,400.801483 222.882751,403.743500 
	C225.301987,407.450317 229.996872,405.030579 233.649490,406.533478 
	C235.834763,400.406586 235.849243,394.200195 237.152634,388.253906 
	C238.432480,382.414978 239.152878,376.455414 240.331451,370.591553 
	C241.120010,366.668121 240.096191,364.276581 235.794235,364.275513 
	C232.502991,364.274658 229.807770,362.355713 226.694977,361.758087 
	C224.523880,361.341217 224.197052,359.197632 224.152725,357.351898 
	C223.969162,349.709137 223.079605,342.040039 224.637955,334.440277 
	C225.491287,330.278748 224.547150,327.676971 219.988312,326.132385 
	C206.595917,321.594818 193.311722,316.723358 180.292511,311.168945 
	C178.618820,310.454865 176.774033,310.085114 176.285202,307.875214 
	C177.966156,306.085938 179.758041,307.253418 181.342545,307.787109 
	C195.545456,312.570740 209.614044,317.717499 223.426819,323.550781 
	C226.814178,324.981323 227.923615,327.109161 227.669189,330.950012 
	C227.108765,339.410461 227.251678,347.917267 227.096756,356.404968 
	C227.055649,358.657471 228.239655,359.738098 230.378296,360.004944 
	C233.182617,360.354858 235.995102,360.664795 238.781219,361.129089 
	C242.678436,361.778534 245.106903,363.480286 244.512527,368.125793 
	C243.056381,379.506744 241.147293,390.805389 238.865341,402.042358 
	C238.239075,405.126221 237.669708,407.666412 241.470032,409.490204 
	C244.450043,410.920258 243.355545,414.174866 242.700577,416.696747 
	C242.072647,419.114594 240.136032,420.114441 237.685944,419.834229 
	C235.869125,419.626434 234.075073,419.219452 232.270950,418.900757 
	C228.646530,418.260559 225.797562,416.965759 226.549545,412.423309 
	C226.790924,410.965393 226.424973,409.697479 224.673508,409.499420 
	C223.099091,409.321350 222.227295,410.300934 221.646072,411.613434 
	C219.876694,415.609009 222.850540,420.124207 224.868423,423.585205 
	C228.214890,429.324951 232.326080,429.330933 237.630676,428.658447 
	C239.679199,428.398773 241.914597,429.184906 244.000580,429.737305 
	C248.511169,430.931854 254.412964,430.480865 253.951859,438.956512 
	C255.767715,433.542023 258.465973,431.154907 263.348785,431.973083 
	C265.909668,432.402191 268.003601,433.287445 268.145386,436.115234 
	C268.326233,439.721497 270.562073,440.123688 273.284546,439.761719 
	C282.504456,438.535736 291.812744,438.675018 301.076141,437.478577 
	C310.578278,436.251282 320.250549,435.235107 329.920227,435.688599 
	C336.261475,435.985992 337.107483,435.178528 336.486633,428.388092 
	C330.980530,427.822754 325.277985,428.666809 319.849243,426.603516 
	C317.381836,425.665649 315.528625,424.682129 316.065948,421.730713 
	C316.586792,418.869598 317.888062,416.779877 321.296631,416.792999 
	C323.408875,416.801117 325.631012,417.274811 327.602051,416.043549 
	C326.811768,409.088928 327.775330,408.541016 333.074615,406.750092 
	C337.336456,405.309753 340.778015,408.616425 344.488556,407.360596 
	C351.112274,415.436920 345.739227,423.400604 344.026337,431.270142 
	C343.104065,435.507324 343.163116,437.562073 347.797028,439.616180 
	C359.950684,445.003723 371.714417,451.272797 383.610077,457.237335 
	C384.722809,457.795227 386.188782,458.219116 386.111847,460.063385 
	C384.341125,461.735931 382.683197,460.293762 381.158325,459.667999 
	C368.071625,454.297699 355.522614,447.743439 342.522980,442.144257 
	C333.898987,438.429688 325.530518,440.566223 317.084412,440.835022 
	C294.991333,441.538147 273.091644,445.417694 250.916641,445.072235 
	C243.765182,444.960785 237.007858,443.986847 231.503464,438.732697 
	C229.318054,436.646606 226.135162,435.705750 223.615723,437.325989 
	C217.481781,441.270630 211.266785,439.273010 205.316223,437.844116 
	C188.767899,433.870392 173.631470,437.192932 158.610535,444.473022 
	C142.758713,452.155823 127.059219,460.617004 109.802834,464.720184 
	C70.784950,473.997772 38.816048,461.357849 12.625267,432.021576 
	C9.567987,428.597107 6.890568,424.803223 2.859382,421.589722 
	C1.638720,424.679810 3.369349,426.353912 4.735430,428.023834 
	C14.568622,440.044373 24.672710,451.774078 38.606293,459.383209 
	C40.446846,460.388306 41.714188,462.053192 41.426258,464.291687 
	C41.160046,466.361389 39.447758,467.274811 37.708305,467.966461 
	C32.558548,470.014191 27.201468,469.640167 21.934826,468.851288 
	C17.343220,468.163513 12.650611,468.043884 8.165150,466.575684 
	C7.004990,466.195923 5.556156,466.039490 4.266775,466.934570 
	C4.594433,468.642822 6.248769,468.884125 7.292224,468.936737 
	C18.326019,469.493134 29.430536,475.673676 40.384090,469.251617 
	C49.864044,463.693604 58.810539,467.782227 67.707718,470.350067 
	C79.467201,473.743988 90.928268,472.677124 102.742325,470.585907 
	C121.920883,467.191101 138.833298,458.240540 156.114990,450.176270 
	C165.808594,445.652832 175.473206,441.051910 186.307953,440.830902 
	C196.419403,440.624695 206.560303,441.483948 216.369034,444.268555 
	C220.895752,445.553680 222.932785,449.291595 223.463867,453.680908 
	C224.666107,463.617371 223.473907,473.618164 224.037064,483.581696 
	C224.418091,490.323151 225.239426,497.107574 224.836929,503.811127 
	C224.037598,517.124268 229.731400,529.256714 231.011917,542.149902 
	C231.077667,542.811890 231.059143,543.482300 231.039917,544.574341 
	C230.250000,545.000000 229.500000,545.000000 228.288452,544.607666 
	C225.843918,535.544495 223.860901,526.873779 221.679504,517.335571 
	C219.298279,520.233948 216.842438,522.367432 214.409637,520.230652 
	C211.745804,517.890930 209.326050,518.830688 206.541733,518.956848 
	C203.757095,519.082947 200.718781,521.146912 198.071304,518.247864 
	C195.099564,514.993652 194.044388,507.068451 196.180328,502.685730 
	C197.761826,504.133026 196.049728,507.067566 198.598724,508.223633 
	C199.711517,505.469788 197.989914,502.554779 199.671844,499.366394 
	C200.682724,501.947723 201.418243,504.105530 202.365540,506.165955 
	C203.302063,508.202911 202.510788,511.802002 206.336288,511.438141 
	C209.439743,511.142914 212.871094,510.920959 213.182465,506.471954 
	C213.293198,504.889618 214.292725,503.558777 215.743637,503.001221 
	C218.572174,501.914307 219.393097,499.441040 219.522247,497.017426 
	C219.962875,488.748444 219.558624,480.494629 218.355835,472.358032 
	C215.996613,471.370636 212.063110,473.265839 212.013336,470.375671 
	C211.944931,466.403900 209.668503,462.843079 210.650101,458.750031 
	C211.897568,453.548279 208.104462,447.366730 203.441299,446.587891 
	C192.980148,444.840637 182.619019,444.649261 172.423782,448.346130 
	C169.260559,449.493164 166.553513,451.947662 163.481323,452.569763 
	C153.088959,454.674286 145.377640,461.594940 137.064987,467.088409 
	C128.004425,473.076202 118.081810,475.461761 107.980728,475.586090 
	C91.932693,475.783569 75.823105,476.351807 59.771542,474.954590 
	C56.910210,474.705566 54.712330,475.716827 52.976093,478.224487 
	C51.230724,480.745422 51.580303,485.312347 48.107227,485.769775 
	C44.492069,486.245911 43.011921,482.041565 40.653088,479.826294 
	C39.180267,478.443115 37.689175,478.537048 36.105766,479.494720 
	C34.858829,480.248871 33.930305,481.303192 34.715034,482.780518 
	C36.827938,486.758179 36.527927,491.238647 37.145416,495.445282 
	C38.331772,503.527344 36.169952,511.641968 34.749386,519.474548 
	C33.682762,525.355591 27.659071,529.907471 27.160713,536.849121 
	C25.869263,535.273743 25.345024,533.913635 24.856569,532.540894 
	C21.929041,524.312927 21.495804,515.590637 19.877817,507.104095 
	C19.402826,504.612701 18.834038,502.291382 15.878131,502.282013 
	C10.915357,502.266235 5.885545,501.318390 1.000000,503.000000 
	C1.000000,481.979095 1.000000,460.958221 1.185225,439.719055 
	C2.144874,440.451904 1.412484,442.208923 3.271094,442.796112 
	C4.690174,441.225037 6.062097,439.473633 4.920785,437.305603 
	C4.061123,435.672577 2.377205,436.411530 1.000000,437.000000 
	C1.000000,419.645782 1.000000,402.291534 1.307917,384.634033 
	C7.458407,387.016479 13.261473,384.485321 18.607946,383.115784 
	C22.246391,382.183777 21.759340,376.119904 24.235643,373.613434 
	C17.089912,363.804688 8.950860,368.571655 1.000000,371.000000 
	C1.000000,368.299988 1.000000,365.599976 1.278736,362.686005 
	C3.930910,366.004883 7.259089,365.173065 10.556561,364.426971 
	C21.362627,361.981995 27.391850,365.971924 28.986984,376.738007 
	C29.438013,379.782166 30.651379,381.666504 34.422592,381.239960 
	C35.143204,378.175598 34.772892,375.372559 34.069805,372.392151 
	C32.650963,366.377686 31.346066,360.215851 36.276699,354.940521 
	C37.017971,354.147430 37.399696,353.259399 36.928555,352.224304 
	C34.085995,345.979462 33.473495,339.100037 31.334993,332.657349 
	C29.465319,327.024597 28.094765,326.519226 22.081768,327.580200 
	C15.074287,328.816650 8.257524,331.305298 1.000000,331.000000 
	C1.000000,330.250000 1.000000,329.500000 1.407522,328.347504 
	C8.166567,326.703247 14.490079,325.379395 20.935266,324.580444 
	C28.426573,323.651733 28.553631,323.359314 26.613279,316.239563 
	C20.929970,295.385742 15.110450,274.569061 9.340706,253.738785 
	C8.169073,249.508896 5.085497,247.630798 1.000000,247.000000 
	C1.000000,243.307098 1.000000,239.614182 1.000000,235.460632 
M118.407402,352.846069 
	C133.173660,354.285492 148.013550,354.184662 162.812744,354.940277 
	C165.225403,355.063477 167.906876,355.484650 170.077026,351.593231 
	C119.719452,318.932587 68.499496,287.640900 17.123840,255.607559 
	C15.657486,260.180389 16.243933,263.363922 17.177113,266.583801 
	C19.632393,275.055634 22.303246,283.479553 24.359280,292.049469 
	C28.662340,309.985321 35.822254,327.066101 39.950367,345.044952 
	C40.673237,348.193176 42.684563,349.720459 46.054012,349.797333 
	C69.865166,350.340485 93.591980,352.894440 118.407402,352.846069 
M155.548843,385.046417 
	C146.816818,395.376892 148.585159,405.155670 160.589539,410.845215 
	C162.232407,411.623871 163.752487,412.702087 165.234268,413.773254 
	C172.943146,419.346069 174.552795,424.734741 170.841385,433.219360 
	C173.966095,433.077789 176.290527,433.201294 176.048325,428.739288 
	C175.877182,425.586304 177.512589,423.792419 181.913666,423.397797 
	C186.980453,422.943390 193.143585,423.773376 196.780685,419.592499 
	C198.110382,414.148010 189.189987,409.078918 198.218643,404.566406 
	C195.291702,402.274841 192.531540,400.402222 190.119141,398.156128 
	C186.668839,394.943695 183.488159,394.311890 178.955475,396.592621 
	C173.464233,399.355713 167.308212,399.390991 161.542389,396.809937 
	C156.936920,394.748291 156.179291,391.802979 158.719559,387.567444 
	C159.318817,386.568268 160.007492,385.622955 160.613739,384.627716 
	C166.933487,374.253143 181.532639,374.092316 185.940643,385.406311 
	C188.905075,393.015106 195.382568,395.100006 200.130493,399.788361 
	C202.187988,401.820038 205.002335,403.146973 204.145157,407.902618 
	C208.915787,402.727997 214.162659,406.623932 218.487350,405.113525 
	C218.504623,401.951019 216.319809,401.319183 214.738281,400.262451 
	C201.462814,391.392059 188.165771,382.553833 174.856049,373.734894 
	C169.887482,370.442719 164.470276,371.628113 161.264404,376.580719 
	C159.544861,379.237183 157.747452,381.843292 155.548843,385.046417 
M9.084585,456.530975 
	C8.619172,458.057068 7.296264,459.382233 8.180382,461.792816 
	C16.493050,464.249817 25.100426,465.985168 34.312897,463.300934 
	C27.372229,458.278717 21.318624,452.383698 14.185195,447.201691 
	C12.249556,450.683807 10.808614,453.276001 9.084585,456.530975 
z"/>
<path fill="#000000" opacity="1.000000" stroke="none" 
	d="
M240.666672,1.000000 
	C241.347214,6.337089 240.848465,11.562901 239.493271,16.767357 
	C238.811234,19.386641 239.004944,21.599804 243.091385,21.371500 
	C248.090652,21.092197 249.401337,25.526106 250.865143,29.141975 
	C251.591568,30.936329 251.918243,33.125805 251.670441,35.038673 
	C250.839294,41.454308 254.812408,44.223522 259.658569,46.729397 
	C269.549927,51.844078 279.226257,56.525478 291.016998,56.862141 
	C296.322388,57.013634 302.373718,57.469589 307.879944,59.385681 
	C312.256378,60.908615 313.926178,59.215965 312.851074,54.847809 
	C310.404022,44.905399 310.916809,34.704742 310.006958,24.630173 
	C309.386719,17.762604 308.387421,10.891591 309.786469,3.958406 
	C312.620209,3.560245 312.878357,5.510584 312.953674,7.351843 
	C313.069183,10.176348 313.395233,13.089068 312.886841,15.825938 
	C310.327759,29.602238 315.595001,42.850677 315.421539,56.449146 
	C315.414520,57.001266 315.927338,57.560009 316.631012,58.047226 
	C316.257019,42.859554 313.363037,27.787510 315.134125,12.138292 
	C317.583252,13.352408 317.150574,15.304496 317.167236,16.902969 
	C317.304474,30.092316 320.203857,42.993248 321.352966,56.084133 
	C321.714661,60.204464 323.994904,64.418877 327.861023,67.314095 
	C331.279480,69.874100 334.998230,72.330551 336.598816,76.675011 
	C336.765839,77.128349 337.084198,77.810333 337.425018,77.871727 
	C341.279358,78.566010 342.924744,81.214462 343.331238,86.286217 
	C346.055176,81.574020 350.830261,79.417603 347.922668,74.117775 
	C347.694916,73.702583 347.946014,72.563423 348.314880,72.350594 
	C354.984497,68.502388 353.964142,60.991531 356.102264,55.188393 
	C361.259033,41.192265 365.424927,26.826439 369.814911,12.555705 
	C370.882843,9.083950 371.273254,5.403771 371.987610,1.409714 
	C373.388885,1.000000 374.777802,1.000000 376.583344,1.000000 
	C377.292542,6.172575 374.814636,10.676072 373.381958,15.402361 
	C366.146271,39.272396 358.755493,63.095497 351.384033,86.924202 
	C350.331848,90.325401 350.315704,95.115509 346.253357,95.897095 
	C341.898682,96.734909 340.718719,91.850510 338.677399,89.015549 
	C336.056610,85.375740 333.830811,81.454483 331.317841,77.733528 
	C325.237793,68.730759 316.522034,64.576103 305.895508,63.218136 
	C297.814362,62.185440 289.659515,62.432056 281.588867,60.872276 
	C274.696228,59.540169 268.786560,56.437969 262.711792,53.344975 
	C244.946487,44.299725 228.763367,32.504517 210.944290,23.581541 
	C193.964020,15.078593 175.879974,12.865756 157.113968,14.574742 
	C146.987457,15.496945 137.110992,17.692701 127.219879,19.809111 
	C118.886292,21.592255 110.837692,21.762903 102.757805,18.463394 
	C90.901100,13.621570 79.247894,8.422131 68.201508,1.275229 
	C81.020897,1.000000 94.041786,1.000000 107.324142,1.153519 
	C107.017509,1.618768 106.449425,1.930498 105.116325,2.662013 
	C108.383347,3.086663 110.335281,4.869891 112.628677,5.944472 
	C120.160500,9.473531 127.946846,12.246893 136.451477,11.812233 
	C142.897781,11.482770 148.091339,7.449289 153.994675,5.471500 
	C155.389008,5.004364 158.055542,3.689005 156.000000,1.000000 
	C180.354233,1.000000 204.708450,1.000000 229.368561,1.224235 
	C227.324219,4.952408 225.731674,8.430457 229.868057,11.700781 
	C232.499115,11.494729 232.482468,7.629477 235.786865,8.024525 
	C235.835007,12.570131 234.966461,16.665873 230.891495,20.256348 
	C232.595215,20.248123 232.667145,22.212370 234.136749,21.607761 
	C237.324966,15.032971 239.456833,8.313597 239.000000,1.000000 
	C239.444443,1.000000 239.888901,1.000000 240.666672,1.000000 
z"/>
<path fill="#000000" opacity="1.000000" stroke="none" 
	d="
M1.000000,216.460632 
	C7.296246,222.101288 15.268859,225.737885 22.533922,230.368149 
	C60.145988,254.339569 97.934395,278.034332 135.667236,301.816193 
	C142.424683,306.075226 149.164673,310.365112 156.002426,314.492157 
	C159.120056,316.373871 161.113892,318.472443 158.689667,322.079742 
	C156.304718,325.628662 153.757401,323.439941 151.404831,321.951843 
	C116.945671,300.154877 82.515305,278.312408 48.048599,256.527435 
	C33.841831,247.547913 19.571516,238.668823 5.307256,229.780716 
	C4.199856,229.090683 2.911473,228.691101 1.353603,228.078262 
	C1.000000,224.307098 1.000000,220.614182 1.000000,216.460632 
z"/>
<path fill="#000000" opacity="1.000000" stroke="none" 
	d="
M577.000000,338.531342 
	C572.413269,334.073883 569.419128,328.077057 566.312012,322.250885 
	C557.421753,305.581024 544.320923,292.234955 532.254272,278.054474 
	C528.335388,273.449066 524.613098,268.676300 520.643982,263.786713 
	C528.978210,261.077057 531.954407,266.914398 534.302795,271.846954 
	C537.562622,278.693970 544.036072,282.533478 548.071777,288.741669 
	C541.533325,275.883789 541.594238,263.243042 548.002808,250.385773 
	C550.418762,253.178345 550.418762,253.178345 549.496033,270.551819 
	C550.515503,271.745514 551.193542,270.010498 552.153137,270.259521 
	C552.222656,270.336273 552.420227,270.457947 552.409180,270.556244 
	C552.080505,273.487213 551.731262,276.415833 551.409424,279.140137 
	C553.367920,280.700226 554.124023,277.479736 556.326843,279.300537 
	C558.381409,286.091278 559.198975,294.108978 562.591797,301.795380 
	C564.109680,301.111664 566.140747,299.800995 566.459656,299.183167 
	C567.899963,296.393066 569.050598,293.045197 564.640198,291.406647 
	C560.885254,290.011597 560.705627,287.595825 562.157349,284.268799 
	C564.742432,278.343994 566.155640,271.929993 569.773010,265.694763 
	C572.060181,270.270630 575.533813,273.729279 575.600952,278.973999 
	C575.947693,277.826172 576.294434,276.678345 576.820557,275.265259 
	C577.000000,296.020905 577.000000,317.041779 577.000000,338.531342 
z"/>
<path fill="#000000" opacity="1.000000" stroke="none" 
	d="
M577.000000,202.571533 
	C560.789978,196.304260 545.043518,187.554092 525.959961,191.681793 
	C528.700745,195.708923 528.057617,198.277695 522.913391,199.201324 
	C519.808167,199.758835 518.969299,204.609283 521.321655,207.167984 
	C522.086365,207.999756 523.545471,208.033340 524.018494,209.718674 
	C518.603088,215.625061 522.394836,223.607147 519.829102,230.500244 
	C518.167297,231.065048 518.607910,228.850418 517.461182,228.557938 
	C515.663696,228.691635 516.908752,231.470978 514.562195,231.634445 
	C512.605957,222.175430 514.946594,212.335678 512.809326,201.843552 
	C507.153320,206.805298 503.809174,212.366653 499.734772,217.252441 
	C496.549194,221.072357 494.011536,225.425430 490.959137,229.365875 
	C488.437836,232.620743 486.948151,235.484573 492.494537,237.688400 
	C490.031525,240.433090 487.577820,240.829865 485.070099,239.330826 
	C482.303711,237.677170 482.912018,235.021637 484.031342,232.677414 
	C487.955353,224.459351 494.524750,218.124054 499.799255,210.864319 
	C505.552826,202.945221 512.075928,195.690994 519.670837,189.487732 
	C522.199646,187.422287 525.544922,187.105042 528.518738,186.082321 
	C541.927124,181.471146 551.988831,190.651505 563.563477,193.252747 
	C567.916931,194.231140 571.810303,196.835449 576.694824,197.074463 
	C577.000000,198.714355 577.000000,200.428711 577.000000,202.571533 
z"/>
<path fill="#000000" opacity="1.000000" stroke="none" 
	d="
M577.000000,195.571533 
	C570.456238,191.899979 562.942017,190.187836 555.847900,187.449570 
	C550.429932,185.358292 544.891602,183.580826 539.450378,181.547287 
	C532.430542,178.923798 532.103455,177.979507 535.500793,171.527145 
	C537.355164,168.005234 539.163696,164.459000 541.049133,160.953949 
	C541.234741,160.608841 541.814819,160.475861 542.526123,160.061172 
	C543.340576,164.410309 541.041138,167.649063 539.529724,170.970230 
	C537.999939,174.331711 538.157043,176.989883 541.870300,178.152634 
	C553.510071,181.797440 564.447205,187.445816 576.698486,190.090988 
	C577.000000,191.714355 577.000000,193.428711 577.000000,195.571533 
z"/>
<path fill="#000000" opacity="1.000000" stroke="none" 
	d="
M577.000000,365.625000 
	C565.704041,358.898560 553.716980,353.002289 542.231628,346.183594 
	C555.269226,348.327118 565.722595,355.736816 576.714111,362.812744 
	C577.000000,363.750000 577.000000,364.500000 577.000000,365.625000 
z"/>
<path fill="#000000" opacity="1.000000" stroke="none" 
	d="
M384.583344,1.000000 
	C389.558685,4.272310 395.245117,2.848422 400.166199,4.635332 
	C401.610107,5.159656 403.615601,4.399219 404.370300,6.522943 
	C403.628632,8.731294 401.772919,8.322181 400.222778,8.148594 
	C394.798523,7.541185 389.402039,6.667120 383.970795,6.148177 
	C381.029022,5.867095 380.689056,3.860576 380.133972,1.354689 
	C381.388885,1.000000 382.777802,1.000000 384.583344,1.000000 
z"/>
<path fill="#000000" opacity="1.000000" stroke="none" 
	d="
M577.000000,417.545898 
	C573.604126,416.930878 570.090149,416.120026 567.193726,413.806976 
	C568.784302,411.116455 572.794678,414.733002 573.460510,411.226379 
	C573.949585,408.650726 570.553040,408.631226 569.245972,406.666229 
	C571.791199,407.160645 574.012329,407.592133 576.616699,408.011780 
	C577.000000,411.030609 577.000000,414.061188 577.000000,417.545898 
z"/>
<path fill="#000000" opacity="1.000000" stroke="none" 
	d="
M248.857971,485.957825 
	C252.078278,476.008423 252.985977,466.394226 249.845230,456.652039 
	C249.539795,455.704559 249.288177,454.728210 248.865738,453.834167 
	C248.602646,453.277344 248.065201,452.850128 247.636917,452.348419 
	C244.341461,453.018188 245.016922,458.167480 241.067276,457.782806 
	C238.060577,457.489990 235.214508,456.921783 233.152023,453.452240 
	C231.589340,457.961182 230.431412,461.622833 231.746872,465.666107 
	C231.982529,466.390472 231.548172,467.411926 232.508347,467.807770 
	C239.863174,470.840149 234.558990,472.698151 231.889954,474.829620 
	C231.653473,475.018463 231.565277,475.393005 231.411194,475.683228 
	C231.282257,476.876343 231.931396,477.602142 232.947632,477.960541 
	C236.340103,479.157135 237.222626,481.693695 237.199982,485.035583 
	C237.182266,487.649994 237.518936,490.229675 238.129654,492.871399 
	C239.091309,497.031036 241.016098,499.357147 245.134766,499.502045 
	C246.651794,501.420258 243.102509,504.260345 248.107574,505.226318 
	C242.318756,507.291321 237.925095,502.844421 233.367584,505.457703 
	C234.611771,508.658691 237.613831,508.214447 239.655365,509.323456 
	C242.484833,510.860443 243.173843,512.388306 240.664307,515.063538 
	C236.672958,519.318481 233.080048,523.719238 235.305908,530.449219 
	C236.350357,533.607178 237.014847,537.111755 236.599762,541.114685 
	C232.860825,538.941833 233.046753,535.207886 232.207001,532.344055 
	C230.386581,526.135803 229.266418,519.718445 227.942017,513.369446 
	C226.503296,506.472473 227.569244,503.974548 233.798126,499.794739 
	C228.137634,498.557922 227.128723,494.675446 226.821381,489.713898 
	C226.162399,479.076019 225.701263,468.501556 226.748901,457.840790 
	C227.515244,450.042786 231.260406,445.769287 239.016068,445.810425 
	C243.625031,445.834930 248.361160,445.222260 252.681305,447.749512 
	C255.003555,449.108032 257.054596,446.914886 259.383423,446.870392 
	C267.866180,446.708191 276.482391,445.042023 284.786591,446.065735 
	C296.472595,447.506378 307.752838,445.037140 319.220459,444.701416 
	C326.303314,444.494049 333.073700,446.849976 339.853699,447.194977 
	C356.637024,448.048950 368.909729,459.046021 383.534027,464.584717 
	C387.277985,466.002686 390.296844,469.022064 393.730042,470.116058 
	C394.691071,473.662689 383.119446,472.803986 392.030121,478.112213 
	C390.971588,480.714966 389.038239,482.898041 388.703278,486.018250 
	C388.388794,488.947266 385.608398,489.112183 383.157135,488.060883 
	C380.559479,486.946869 378.072205,485.573853 375.467896,484.477386 
	C371.164825,482.665680 368.167267,484.120972 364.546875,487.191345 
	C361.604736,489.686462 357.241821,491.368561 352.534882,490.873322 
	C346.768799,490.266602 342.005920,486.992462 336.652344,485.895966 
	C335.349030,483.799774 337.768585,482.396118 337.275726,480.288147 
	C335.433380,478.713501 333.011108,479.699921 330.845306,479.061554 
	C330.351532,481.109009 333.015991,480.574310 332.840576,482.480896 
	C325.803528,484.326965 318.193878,482.925568 313.194611,479.051941 
	C309.809479,476.428986 306.089844,472.114532 303.517273,467.763733 
	C302.513306,466.065826 302.259583,464.385559 304.325043,463.634521 
	C309.627258,461.706482 309.582092,456.946198 310.677673,452.713654 
	C302.012482,449.831726 295.497101,453.293976 293.944397,461.503143 
	C293.651428,463.051941 293.280975,464.922119 291.349030,464.326202 
	C288.804688,463.541382 288.855560,465.932373 287.255219,466.990143 
	C283.631073,463.342377 279.456940,462.189667 274.431000,464.760223 
	C273.046051,465.468567 270.862335,464.637848 269.048279,464.478180 
	C267.297119,464.324005 265.437531,463.521179 263.504822,466.035950 
	C267.485687,467.811157 271.754547,467.016022 275.465515,468.501526 
	C279.255371,470.018555 283.675018,469.731018 287.808350,472.796844 
	C279.210022,472.590332 272.153961,467.092255 263.936920,468.829620 
	C267.106079,469.786865 270.427094,470.215332 273.911469,473.017822 
	C268.871857,472.827820 264.596191,471.697784 260.332855,473.349243 
	C258.102325,474.213287 257.171265,474.993622 256.941803,477.374359 
	C256.624390,480.667053 255.776154,483.910736 255.114304,487.167084 
	C254.827698,488.577271 254.836090,490.226746 252.240433,490.770203 
	C252.108139,485.302582 255.446136,480.707886 255.122192,475.430573 
	C252.272842,481.875458 251.251724,489.034943 247.133316,495.039795 
	C247.686172,492.148224 248.239029,489.256683 248.857971,485.957825 
M323.218048,463.273102 
	C322.843475,466.706024 327.087860,469.547424 323.761597,473.436279 
	C326.985413,473.743988 329.691986,476.145660 331.917358,473.830139 
	C333.740204,471.933472 333.125549,468.635986 331.872711,466.760101 
	C329.043671,462.524292 330.125336,460.174774 334.604523,458.838348 
	C332.075592,453.269531 330.576111,452.723663 322.612396,454.243927 
	C321.222168,457.055817 322.756775,459.721527 323.218048,463.273102 
M345.600616,472.723511 
	C343.870331,474.054291 343.878998,475.523590 345.385193,477.770050 
	C347.210968,475.969727 350.567657,475.137421 345.600616,472.723511 
z"/>
<path fill="#000000" opacity="1.000000" stroke="none" 
	d="
M383.838837,87.214088 
	C390.144043,89.894501 390.938965,89.727478 394.341705,84.951065 
	C395.768250,88.424583 396.608551,91.511559 393.743561,94.453049 
	C396.472778,95.189415 398.875732,95.848648 401.285217,96.483147 
	C402.437195,96.786491 404.081757,97.186836 404.066681,98.282349 
	C403.970337,105.285736 412.129517,109.648148 409.992706,117.306091 
	C409.531403,118.959251 409.463379,121.173035 412.471649,121.209061 
	C412.951843,119.334053 410.956940,117.442703 412.693176,115.273750 
	C415.109497,117.066307 417.588501,119.530563 418.766846,121.752823 
	C422.042603,127.930679 427.691254,129.241577 433.381012,130.933060 
	C439.117981,132.638580 444.928986,134.110977 450.612183,135.976135 
	C454.791534,137.347763 457.331665,136.447845 458.276459,131.934509 
	C458.533722,130.705688 458.909515,129.328110 460.935638,128.806931 
	C461.658356,132.978317 460.513306,136.696930 459.212311,140.341110 
	C458.472229,142.414047 456.730164,142.128174 455.006714,141.607513 
	C444.647888,138.478119 434.190643,135.637497 423.968414,132.113968 
	C420.538696,130.931763 417.348114,129.862747 413.683228,129.287079 
	C408.654755,128.497223 403.458313,127.350533 399.039490,123.633598 
	C396.672668,121.642738 392.775452,120.713478 388.742310,121.816521 
	C384.470062,122.984962 380.411896,120.052559 376.237762,119.055908 
	C368.491852,117.206436 360.710602,115.326813 354.654938,109.383492 
	C350.744293,105.545425 349.643341,101.189293 351.108185,96.202988 
	C353.265289,88.860214 356.075195,81.695320 357.950836,74.288490 
	C359.274017,69.063385 362.118164,69.058174 366.802765,70.755501 
	C357.518707,67.771988 361.885986,62.366848 363.381439,57.519382 
	C367.697540,43.528996 371.995575,29.533012 376.273712,15.530988 
	C377.362579,11.967196 378.339447,9.111234 383.447693,9.759800 
	C387.313599,10.250633 391.180298,10.042124 395.281158,12.117517 
	C391.949493,14.530328 386.350220,10.754899 385.805450,16.589170 
	C383.913757,16.766336 383.763275,15.074935 382.330078,14.568520 
	C382.134521,17.616150 379.174622,18.978069 378.350891,21.705677 
	C374.413849,34.742119 370.292908,47.725243 366.545013,60.815414 
	C365.210693,65.475746 369.395813,66.670113 372.524292,67.831161 
	C374.445648,68.544228 375.175568,69.497826 375.376160,71.327209 
	C375.550140,72.913734 375.558807,74.537575 373.900787,75.198814 
	C370.858765,76.412041 367.996338,78.117577 369.536713,81.688904 
	C371.106995,85.329491 374.885742,86.493858 378.712006,86.370560 
	C380.405273,86.316002 382.002289,86.012642 383.838837,87.214088 
M405.017975,109.553177 
	C403.410187,107.809280 402.190308,105.874519 401.788177,103.474030 
	C401.315796,100.654205 400.100128,97.668030 396.926117,98.277603 
	C393.345764,98.965210 387.979523,95.330376 386.175354,103.730278 
	C384.683411,94.318977 378.578278,94.490425 372.734344,93.921196 
	C370.485443,93.702133 368.571472,93.791206 367.801880,96.053810 
	C367.044189,98.281342 365.538025,100.461838 367.299438,103.098595 
	C370.107605,107.302322 374.118256,109.205505 378.853455,110.145233 
	C380.639282,110.499634 381.673340,110.004616 382.344482,108.302620 
	C383.514313,105.335884 385.883362,103.555115 388.947784,104.224937 
	C392.636078,105.031120 393.798981,108.307419 393.384613,111.639236 
	C392.937347,115.235451 395.220825,116.548019 397.649750,117.440132 
	C400.175812,118.367920 403.067413,119.722267 405.552582,117.071243 
	C407.722137,114.756889 406.548126,112.454117 405.017975,109.553177 
z"/>
<path fill="#000000" opacity="1.000000" stroke="none" 
	d="
M305.688477,408.721741 
	C302.325958,407.682495 301.610260,405.647491 302.178192,402.775787 
	C303.784821,394.652344 305.374237,386.524048 306.825562,378.371887 
	C307.486816,374.657654 309.569855,373.369324 313.137970,373.798859 
	C317.084961,374.274017 321.088135,374.405914 324.986816,375.122589 
	C328.418793,375.753479 332.216644,376.824371 332.732971,380.974731 
	C333.248230,385.116272 331.415833,389.476593 328.063599,391.256531 
	C324.344757,393.231018 323.245544,395.863525 322.506805,399.326996 
	C322.057190,401.434784 321.518585,403.523682 321.014679,405.619812 
	C320.177795,409.101074 318.141235,410.617188 314.463959,409.924835 
	C311.703827,409.405182 308.885864,409.192749 305.688477,408.721741 
z"/>
<path fill="#000000" opacity="1.000000" stroke="none" 
	d="
M298.378357,323.513428 
	C304.548920,324.634918 310.286499,325.634644 316.003021,326.742950 
	C317.413635,327.016388 319.188873,327.171234 319.396057,329.109161 
	C319.556427,330.609253 318.520538,331.716248 317.277435,332.212097 
	C314.466431,333.333282 314.532288,335.579468 314.957153,337.845154 
	C312.591370,339.516388 310.199188,339.080292 307.988495,338.619690 
	C302.905212,337.560638 297.811462,337.007904 292.617371,337.107605 
	C288.622894,337.184326 285.802521,335.900024 286.006500,331.081970 
	C286.301086,324.121521 287.376892,322.701080 292.980927,322.897797 
	C294.637329,322.955872 296.285583,323.247284 298.378357,323.513428 
z"/>
<path fill="#000000" opacity="1.000000" stroke="none" 
	d="
M447.762604,316.747620 
	C444.822113,324.357391 441.623474,331.497650 441.155457,339.663422 
	C437.444031,340.026093 436.705627,338.342590 437.661133,335.267700 
	C441.957886,321.440674 446.895447,307.821289 452.766754,294.611542 
	C457.755005,283.388550 461.819183,271.751160 467.684845,260.917450 
	C471.370758,254.109695 474.037872,246.660599 482.177094,243.273254 
	C485.443909,241.913681 488.497681,242.068680 491.747742,241.742035 
	C491.705231,242.183868 491.731812,242.462509 491.668793,242.484558 
	C477.389221,247.473846 473.376465,261.106873 466.116028,272.200470 
	C459.147369,282.848206 456.599792,295.154053 451.362366,306.399719 
	C450.167999,308.964203 451.314941,310.394440 453.117706,312.283722 
	C450.796082,313.224823 448.198517,313.547089 447.762604,316.747620 
z"/>
<path fill="#000000" opacity="1.000000" stroke="none" 
	d="
M219.815308,267.406189 
	C212.294113,268.756805 205.321259,268.966553 198.474457,265.717285 
	C194.754745,263.952026 190.596161,263.130035 186.688049,261.735321 
	C184.782227,261.055206 182.325974,260.918793 181.671906,257.286255 
	C202.514160,266.261017 217.786194,259.988983 228.672546,241.459045 
	C232.268265,246.733368 228.260574,259.596130 219.815308,267.406189 
z"/>
<path fill="#000000" opacity="1.000000" stroke="none" 
	d="
M525.820618,160.052048 
	C525.282227,160.988495 524.788452,161.654755 524.296509,162.322357 
	C522.584106,164.646271 523.557861,166.531662 525.573364,167.809799 
	C527.940002,169.310577 528.632751,166.999939 529.695435,165.596970 
	C531.034851,163.828674 530.845642,160.296631 535.595764,161.415588 
	C534.248230,166.327271 532.911377,171.150940 529.930115,175.293045 
	C528.664673,177.051270 526.085754,177.335464 524.430237,176.183487 
	C517.392578,171.286240 510.299377,166.378235 505.312500,159.168671 
	C504.902924,158.576538 504.995758,157.636887 504.806854,156.591568 
	C509.307587,155.092148 513.431763,157.905045 517.933899,156.872131 
	C515.390503,155.640793 512.454529,156.118713 510.122681,153.731659 
	C513.767822,152.513321 516.834839,150.449966 520.467590,153.516006 
	C522.783997,155.471054 525.785522,156.106277 528.915833,156.714966 
	C527.294800,156.912979 525.673706,157.110992 523.985718,157.317184 
	C523.752136,158.797287 525.946594,158.456680 525.820618,160.052048 
z"/>
<path fill="#000000" opacity="1.000000" stroke="none" 
	d="
M573.444336,220.356308 
	C570.809998,227.282898 569.186890,234.413757 562.302673,238.291519 
	C560.284851,236.495743 561.181335,234.615540 561.631836,233.000687 
	C563.281189,227.089355 565.135620,221.235565 566.881897,215.350906 
	C567.664978,212.711990 568.717529,210.691666 572.116760,211.794693 
	C575.775146,212.981781 575.448853,215.357361 574.265625,218.111740 
	C574.003479,218.721924 573.791077,219.353439 573.444336,220.356308 
z"/>
<path fill="#000000" opacity="1.000000" stroke="none" 
	d="
M463.772644,137.666473 
	C464.950348,135.995453 465.868866,135.995071 466.133514,137.800354 
	C466.579285,140.841339 468.981628,141.528503 471.228180,141.644608 
	C477.241425,141.955414 482.594238,144.759659 488.398834,145.776764 
	C489.736420,146.011154 491.285736,146.409485 491.069153,148.124634 
	C490.792023,150.319397 488.943695,149.873383 487.534790,149.572632 
	C480.801208,148.135269 474.092804,146.580429 467.363892,145.120605 
	C463.198547,144.216949 461.683197,142.013611 463.772644,137.666473 
z"/>
<path fill="#000000" opacity="1.000000" stroke="none" 
	d="
M259.031799,416.700317 
	C258.540741,418.860382 258.106598,420.616760 257.528015,422.957611 
	C255.662888,421.336029 254.047592,420.370728 251.621872,420.521332 
	C248.364258,420.723602 247.892715,417.866211 247.958878,415.199646 
	C248.025696,412.505432 249.145248,410.522797 252.136139,410.903595 
	C255.388870,411.317780 259.668854,410.789917 259.031799,416.700317 
z"/>
<path fill="#000000" opacity="1.000000" stroke="none" 
	d="
M439.000000,374.118347 
	C439.822205,377.847717 440.580658,381.173553 441.339081,384.499420 
	C436.081482,375.484314 432.656586,365.977966 432.745453,355.450592 
	C436.235352,361.067291 436.515137,367.754364 439.000000,374.118347 
z"/>
<path fill="#000000" opacity="1.000000" stroke="none" 
	d="
M441.304443,353.825623 
	C442.056122,357.317139 442.367371,360.388580 441.354126,363.549622 
	C437.766235,357.319214 436.653687,350.540131 436.814514,343.478027 
	C436.842804,342.237183 437.370941,341.101776 438.875793,341.217377 
	C440.572083,341.347748 441.153412,342.551849 440.769196,344.041260 
	C439.946259,347.231506 440.709503,350.300842 441.304443,353.825623 
z"/>
<path fill="#000000" opacity="1.000000" stroke="none" 
	d="
M527.800049,285.348389 
	C529.211060,288.867981 530.799683,291.952972 530.302490,295.659058 
	C525.784851,289.010223 521.962769,282.095764 521.316956,273.840729 
	C524.369934,277.074524 525.696289,281.205292 527.800049,285.348389 
z"/>
<path fill="#000000" opacity="1.000000" stroke="none" 
	d="
M347.329590,368.409302 
	C346.665009,370.957581 346.149597,373.149719 345.577484,375.583038 
	C342.925995,370.228119 345.381927,362.542267 351.268616,357.915649 
	C351.280823,362.023926 348.227142,364.639069 347.329590,368.409302 
z"/>
<path fill="#000000" opacity="1.000000" stroke="none" 
	d="
M344.166992,384.797607 
	C344.451874,386.913177 345.569916,388.590485 344.336121,391.230835 
	C341.459534,385.999969 341.035187,381.018738 341.829193,375.715759 
	C342.587128,378.614075 343.345093,381.512360 344.166992,384.797607 
z"/>
<path fill="#000000" opacity="1.000000" stroke="none" 
	d="
M357.602600,261.133850 
	C362.902649,265.088348 368.486969,265.072815 374.137421,263.768372 
	C378.025726,262.870697 379.144196,264.339600 379.226501,268.033112 
	C379.483734,279.573517 378.699707,280.475281 368.151733,276.479004 
	C360.854767,273.714417 352.878967,272.926208 346.098206,268.791199 
	C344.779114,267.986786 342.541107,267.576813 342.912262,265.463959 
	C343.260864,263.479614 344.565338,261.801147 346.579529,261.026886 
	C350.108124,259.670502 353.680145,259.307709 357.602600,261.133850 
z"/>
<path fill="#000000" opacity="1.000000" stroke="none" 
	d="
M341.506470,148.006561 
	C340.774475,148.388596 340.330841,148.645096 339.858856,148.717972 
	C338.185333,148.976410 336.391388,149.079666 335.766388,147.097061 
	C335.313080,145.659164 336.506470,144.921066 337.755737,145.040451 
	C339.512817,145.208359 342.329559,144.155670 341.506470,148.006561 
z"/>
<path fill="#000000" opacity="1.000000" stroke="none" 
	d="
M209.076630,484.937286 
	C208.384491,483.180328 207.735123,481.839661 207.225922,480.447784 
	C206.623642,478.801636 206.543549,477.114166 207.991058,475.851318 
	C209.322540,474.689697 211.045593,474.503113 212.707642,474.775208 
	C214.849823,475.125916 214.780853,476.962585 215.092163,478.617462 
	C215.919266,483.014099 216.905792,487.380493 217.797287,491.765381 
	C218.265121,494.066559 218.229324,496.269592 215.295380,496.771301 
	C212.568649,497.237579 211.398041,495.474426 210.871033,493.121796 
	C210.290161,490.528778 209.743164,487.928223 209.076630,484.937286 
z"/>
<path fill="#000000" opacity="1.000000" stroke="none" 
	d="
M4.269720,371.956482 
	C6.604874,370.354187 8.968843,370.365021 11.270515,370.326965 
	C12.426988,370.307831 13.641413,370.789124 13.809074,372.230865 
	C13.971051,373.623718 13.011048,374.445190 11.866234,374.761017 
	C9.956569,375.287811 7.974440,375.899719 6.032248,375.869476 
	C3.798326,375.834778 2.640252,374.560577 4.269720,371.956482 
z"/>
<path fill="#000000" opacity="1.000000" stroke="none" 
	d="
M455.554443,216.269897 
	C453.977386,215.846909 452.769104,215.434784 452.017975,213.776550 
	C454.408112,212.502502 456.880066,212.342850 458.286407,214.529968 
	C459.164307,215.895157 457.336304,216.515686 455.554443,216.269897 
z"/>
<path fill="#000000" opacity="1.000000" stroke="none" 
	d="
M433.963226,288.013092 
	C432.460938,287.923584 431.219238,288.060547 430.502502,286.038116 
	C433.841675,284.604706 437.999603,284.252075 439.992554,280.314697 
	C441.791565,284.132782 440.132080,286.186340 433.963226,288.013092 
z"/>
</svg>